<!-- Generated by IcoMoon.io -->
<svg version="1.1" xmlns="http://www.w3.org/2000/svg" width="24" height="24" viewBox="0 0 24 24">
<path d="M7.909 3c-1.356 0-2.584 0.551-3.472 1.438s-1.438 2.116-1.438 3.472v8.182c0 1.356 0.551 2.584 1.438 3.472s2.116 1.438 3.472 1.438h8.182c1.356 0 2.584-0.551 3.472-1.438s1.438-2.116 1.438-3.472v-8.182c0-1.356-0.551-2.584-1.438-3.472s-2.116-1.438-3.472-1.438zM7.909 4.636h8.182c0.904 0 1.721 0.366 2.314 0.959s0.959 1.41 0.959 2.314v8.182c0 0.904-0.366 1.721-0.959 2.314s-1.41 0.959-2.314 0.959h-8.182c-0.904 0-1.721-0.366-2.314-0.959s-0.959-1.41-0.959-2.314v-8.182c0-0.904 0.366-1.721 0.959-2.314s1.41-0.959 2.314-0.959zM16.082 11.364c-0.123-0.795-0.467-1.519-0.977-2.1-0.617-0.704-1.476-1.199-2.462-1.345-0.38-0.061-0.794-0.063-1.208-0.002-1.118 0.165-2.063 0.77-2.685 1.609s-0.927 1.92-0.761 3.037 0.77 2.063 1.609 2.685 1.92 0.927 3.037 0.761 2.063-0.77 2.685-1.609 0.927-1.92 0.761-3.037zM14.464 11.605c0.1 0.671-0.082 1.316-0.457 1.822s-0.941 0.866-1.611 0.965-1.316-0.082-1.822-0.457-0.866-0.941-0.965-1.611 0.082-1.316 0.457-1.822 0.941-0.866 1.611-0.965c0.256-0.038 0.503-0.034 0.712-0.002 0.605 0.090 1.118 0.385 1.487 0.807 0.307 0.35 0.515 0.788 0.589 1.262zM16.5 8.318c0.452 0 0.818-0.367 0.818-0.818s-0.367-0.818-0.818-0.818-0.818 0.367-0.818 0.818 0.367 0.818 0.818 0.818z"></path>
</svg>
