<!-- Generated by IcoMoon.io -->
<svg version="1.1" xmlns="http://www.w3.org/2000/svg" width="24" height="24" viewBox="0 0 24 24">
<path d="M2.486 13.057h19.029c0.584 0 1.057-0.474 1.057-1.057s-0.474-1.057-1.057-1.057h-19.029c-0.584 0-1.057 0.474-1.057 1.057s0.474 1.057 1.057 1.057zM2.486 6.714h19.029c0.584 0 1.057-0.474 1.057-1.057s-0.474-1.057-1.057-1.057h-19.029c-0.584 0-1.057 0.474-1.057 1.057s0.474 1.057 1.057 1.057zM2.486 19.4h19.029c0.584 0 1.057-0.474 1.057-1.057s-0.474-1.057-1.057-1.057h-19.029c-0.584 0-1.057 0.474-1.057 1.057s0.474 1.057 1.057 1.057z"></path>
</svg>
