<!-- Generated by IcoMoon.io -->
<svg version="1.1" xmlns="http://www.w3.org/2000/svg" width="24" height="24" viewBox="0 0 24 24">
<path d="M12 24c-6.627 0-12-5.373-12-12s5.373-12 12-12v0c6.627 0 12 5.373 12 12s-5.373 12-12 12v0zM13.2 18h1.2c1.988 0 3.6-1.612 3.6-3.6s-1.612-3.6-3.6-3.6v0h-4.812c-0.663 0-1.2-0.537-1.2-1.2s0.537-1.2 1.2-1.2v0h7.212v-2.4h-3.6v-2.4h-2.4v2.4h-1.2c-1.988 0-3.6 1.612-3.6 3.6s1.612 3.6 3.6 3.6v0h4.8c0.663 0 1.2 0.537 1.2 1.2s-0.537 1.2-1.2 1.2v0h-7.2v2.4h3.6v2.4h2.4v-2.4z"></path>
</svg>
