<!-- Generated by IcoMoon.io -->
<svg version="1.1" xmlns="http://www.w3.org/2000/svg" width="24" height="24" viewBox="0 0 24 24">
<path d="M12 24c-6.628 0-12-5.372-12-12s5.372-12 12-12 12 5.372 12 12-5.372 12-12 12zM12 2.769c-5.097 0-9.231 4.133-9.231 9.231s4.134 9.231 9.231 9.231c5.098 0 9.231-4.134 9.231-9.231s-4.133-9.231-9.231-9.231zM15.681 12.923h-2.769v2.769c0 0.51-0.414 0.923-0.923 0.923s-0.923-0.413-0.923-0.923v-2.769h-2.769c-0.51 0-0.923-0.414-0.923-0.923s0.413-0.923 0.923-0.923h2.769v-2.769c0-0.51 0.413-0.923 0.923-0.923s0.923 0.413 0.923 0.923v2.769h2.769c0.51 0 0.923 0.414 0.923 0.923s-0.414 0.923-0.923 0.923z"></path>
</svg>
