<!-- Generated by IcoMoon.io -->
<svg version="1.1" xmlns="http://www.w3.org/2000/svg" width="24" height="24" viewBox="0 0 24 24">
<path d="M18.545 6.545v14.182c0 0.301-0.121 0.573-0.32 0.771s-0.47 0.32-0.771 0.32h-10.909c-0.301 0-0.573-0.121-0.771-0.32s-0.32-0.47-0.32-0.771v-14.182zM17.455 4.364v-1.091c0-0.903-0.368-1.724-0.959-2.314s-1.411-0.959-2.314-0.959h-4.364c-0.903 0-1.724 0.368-2.314 0.959s-0.959 1.411-0.959 2.314v1.091h-4.364c-0.602 0-1.091 0.489-1.091 1.091s0.489 1.091 1.091 1.091h1.091v14.182c0 0.903 0.368 1.724 0.959 2.314s1.411 0.959 2.314 0.959h10.909c0.903 0 1.724-0.368 2.314-0.959s0.959-1.411 0.959-2.314v-14.182h1.091c0.602 0 1.091-0.489 1.091-1.091s-0.489-1.091-1.091-1.091zM8.727 4.364v-1.091c0-0.301 0.121-0.573 0.32-0.771s0.47-0.32 0.771-0.32h4.364c0.301 0 0.573 0.121 0.771 0.32s0.32 0.47 0.32 0.771v1.091zM8.727 10.909v6.545c0 0.602 0.489 1.091 1.091 1.091s1.091-0.489 1.091-1.091v-6.545c0-0.602-0.489-1.091-1.091-1.091s-1.091 0.489-1.091 1.091zM13.091 10.909v6.545c0 0.602 0.489 1.091 1.091 1.091s1.091-0.489 1.091-1.091v-6.545c0-0.602-0.489-1.091-1.091-1.091s-1.091 0.489-1.091 1.091z"></path>
</svg>
